<?xml version="1.0" standalone="no"?><!DOCTYPE svg PUBLIC "-//W3C//DTD SVG 1.1//EN" "http://www.w3.org/Graphics/SVG/1.1/DTD/svg11.dtd"><svg t="1597113215672" class="icon" viewBox="0 0 1024 1024" version="1.1" xmlns="http://www.w3.org/2000/svg" p-id="1450" xmlns:xlink="http://www.w3.org/1999/xlink" width="200" height="200"><defs><style type="text/css"></style></defs><path d="M481.28 589.9264l-63.8464 36.864 333.6704 192.6656v-73.728L481.28 589.9264z" fill="#9A9A9A" p-id="1451"></path><path d="M481.2288 590.2336l-63.8464 36.864V220.16l63.8464-36.864v406.9376z" fill="#787878" p-id="1452"></path><path d="M353.28 130.816v532.8384l461.4144 266.24V397.2608z m397.568 688.64l-333.4656-192.6656V241.408l333.7216 192.7168z" fill="#868686" p-id="1453"></path><path d="M878.7968 893.184l-63.8464 36.864V397.2608l63.8464-36.864v532.7872z" fill="#787878" p-id="1454"></path><path d="M417.3824 93.952l461.4144 266.3936-64 36.9664-461.4144-266.3936 64-36.9664z" fill="#9A9A9A" p-id="1455"></path><path d="M751.104 819.456l-333.7216-192.6656V489.2672H353.4848v174.3872l397.6192 229.5296v-73.728z" fill="#868686" p-id="1456"></path><path d="M701.7984 448.9728l-337.4592 194.816-63.3344-36.5568 337.4592-194.816 63.3344 36.5568z" fill="#FF9997" p-id="1457"></path><path d="M456.8576 444.16l-248.32 362.7008-63.3344-36.608 248.32-362.6496 63.3344 36.5568z" fill="#FF9997" p-id="1458"></path><path d="M208.5376 806.8608l248.32-362.752v146.2272l244.9408-141.4144v146.2784l-244.9408 141.4144v146.2272l-248.32-75.9808z" fill="#FF625A" p-id="1459"></path></svg>