<?xml version="1.0" standalone="no"?><!DOCTYPE svg PUBLIC "-//W3C//DTD SVG 1.1//EN" "http://www.w3.org/Graphics/SVG/1.1/DTD/svg11.dtd"><svg t="1598500445888" class="icon" viewBox="0 0 1024 1024" version="1.1" xmlns="http://www.w3.org/2000/svg" p-id="1170" xmlns:xlink="http://www.w3.org/1999/xlink" width="200" height="200"><defs><style type="text/css"></style></defs><path d="M904 1024H120c-66.168 0-120-53.832-120-120V120C0 53.832 53.832 0 120 0h784c66.168 0 120 53.832 120 120v784c0 66.168-53.832 120-120 120zM120 4C56.038 4 4 56.038 4 120v784c0 63.962 52.038 116 116 116h784c63.962 0 116-52.038 116-116V120c0-63.962-52.038-116-116-116H120z" fill="#D8DDE3" p-id="1171"></path><path d="M729.4 831.858H512v-60h217.4c23.414 0 42.462-19.048 42.462-42.462V294.604c0-23.416-19.048-42.464-42.462-42.464H512v-60h217.4c56.498 0 102.462 45.964 102.462 102.464v434.792c0.002 56.496-45.964 102.462-102.462 102.462z" fill="#20263B" p-id="1172"></path><path d="M599 542H222c-16.568 0-30-13.432-30-30s13.432-30 30-30h377c16.568 0 30 13.432 30 30s-13.432 30-30 30z" fill="#FF4B07" p-id="1173"></path><path d="M222 542c-7.748 0-15.488-2.98-21.358-8.932-11.636-11.794-11.506-30.79 0.29-42.426l148-146c11.794-11.634 30.788-11.508 42.426 0.29 11.636 11.794 11.506 30.79-0.29 42.426l-148 146A29.9 29.9 0 0 1 222 542z" fill="#FF4B07" p-id="1174"></path><path d="M370 688a29.906 29.906 0 0 1-21.068-8.642l-148-146c-11.794-11.636-11.924-30.63-0.29-42.426 11.636-11.796 30.63-11.924 42.426-0.29l148 146c11.794 11.636 11.924 30.63 0.29 42.426A29.91 29.91 0 0 1 370 688z" fill="#FF4B07" p-id="1175"></path></svg>