<?xml version="1.0" standalone="no"?><!DOCTYPE svg PUBLIC "-//W3C//DTD SVG 1.1//EN" "http://www.w3.org/Graphics/SVG/1.1/DTD/svg11.dtd"><svg t="1598415657474" class="icon" viewBox="0 0 1024 1024" version="1.1" xmlns="http://www.w3.org/2000/svg" p-id="4629" xmlns:xlink="http://www.w3.org/1999/xlink" width="20" height="20"><defs><style type="text/css"></style></defs><path d="M534.1 631.8c-93.3 0-177.5-56.2-213.3-142.5-35.7-86.3-16-185.5 50.1-251.6 58.3-58.4 143.3-81.2 223-59.9 79.7 21.3 142 83.6 163.3 163.3s-1.5 164.7-59.9 223.1c-43.2 43.4-102 67.8-163.2 67.6zM915 1012.8c0-210.4-170.5-380.9-380.9-380.9s-380.9 170.5-380.9 380.9H915z" fill="#46A3FB" p-id="4630"></path><path d="M798.7 946.1h-46.5c-6.8 0-12.3-5.5-12.3-12.3s5.5-12.3 12.3-12.3h46.5c6.8 0 12.3 5.5 12.3 12.3s-5.5 12.3-12.3 12.3zM692.6 946.1H583.2c-6.8 0-12.3-5.5-12.3-12.3s5.5-12.3 12.3-12.3h109.4c6.8 0 12.3 5.5 12.3 12.3s-5.5 12.3-12.3 12.3z" fill="#FFFFFF" p-id="4631"></path><path d="M482.7 37.2a2.4 12.9 0 1 0 4.8 0 2.4 12.9 0 1 0-4.8 0Z" fill="#E61F19" p-id="4632"></path><path d="M471.815238 41.228483a12.9 2.4 60 1 0 4.156922-2.4 12.9 2.4 60 1 0-4.156922 2.4Z" fill="#E61F19" p-id="4633"></path><path d="M464.395278 50.104281a12.9 2.4 30 1 0 2.4-4.156921 12.9 2.4 30 1 0-2.4 4.156921Z" fill="#E61F19" p-id="4634"></path><path d="M449.5 59.1a12.9 2.4 0 1 0 25.8 0 12.9 2.4 0 1 0-25.8 0Z" fill="#E61F19" p-id="4635"></path><path d="M454.02689 76.76484a2.4 12.9 60 1 0 22.343455-12.9 2.4 12.9 60 1 0-22.343455 12.9Z" fill="#E61F19" p-id="4636"></path><path d="M466.82967 89.746515a2.4 12.9 30 1 0 12.9-22.343456 2.4 12.9 30 1 0-12.9 22.343456Z" fill="#E61F19" p-id="4637"></path><path d="M481.9 81.8a2.4 12.9 0 1 0 4.8 0 2.4 12.9 0 1 0-4.8 0Z" fill="#E61F19" p-id="4638"></path><path d="M493.406379 80.209421a12.9 2.4 60 1 0 4.156922-2.4 12.9 2.4 60 1 0-4.156922 2.4Z" fill="#E61F19" p-id="4639"></path><path d="M502.6155 73.105308a12.9 2.4 30 1 0 2.4-4.156922 12.9 2.4 30 1 0-2.4 4.156922Z" fill="#E61F19" p-id="4640"></path><path d="M494.1 59.9a12.9 2.4 0 1 0 25.8 0 12.9 2.4 0 1 0-25.8 0Z" fill="#E61F19" p-id="4641"></path><path d="M493.026112 55.155938a2.4 12.9 60 1 0 22.343455-12.9 2.4 12.9 60 1 0-22.343455 12.9Z" fill="#E61F19" p-id="4642"></path><path d="M489.731457 51.61361a2.4 12.9 30 1 0 12.9-22.343455 2.4 12.9 30 1 0-12.9 22.343455Z" fill="#E61F19" p-id="4643"></path><path d="M643.8 34.6m-15.7 0a15.7 15.7 0 1 0 31.4 0 15.7 15.7 0 1 0-31.4 0Z" fill="#2C65AF" p-id="4644"></path><path d="M351.6 109.5c-2.4 0-4.4-2-4.4-4.4V57.2c0-2.4 2-4.4 4.4-4.4 2.4 0 4.4 2 4.4 4.4v47.9c0 2.4-2 4.4-4.4 4.4z" fill="#2C65AF" p-id="4645"></path><path d="M375.5 85.5h-47.9c-2.4 0-4.4-2-4.4-4.4 0-2.4 2-4.4 4.4-4.4h47.9c2.4 0 4.4 2 4.4 4.4 0 2.4-1.9 4.4-4.4 4.4z" fill="#2C65AF" p-id="4646"></path><path d="M829.8 174.8c-6-2.6-12.4-1.1-14.3 3.3l-37 85.8c-1.9 4.4 1.4 10.1 7.4 12.7 6 2.6 12.4 1.1 14.3-3.3l37-85.8c1.9-4.5-1.4-10.2-7.4-12.7z" fill="#DAB647" p-id="4647"></path><path d="M757 203.7c-2.6 6-1.1 12.4 3.3 14.3l85.8 37c4.4 1.9 10.1-1.4 12.7-7.4 2.6-6 1.1-12.4-3.3-14.3l-85.8-37c-4.5-1.9-10.1 1.4-12.7 7.4z" fill="#DAB647" p-id="4648"></path><path d="M659.4 168.1c-21.9 0-39.7-17.6-39.7-39.3s17.8-39.3 39.7-39.3c21.9 0 39.7 17.6 39.7 39.3s-17.7 39.3-39.7 39.3z m0-68.3c-16.1 0-29.2 13-29.2 28.9s13.1 28.9 29.2 28.9 29.2-13 29.2-28.9-13.1-28.9-29.2-28.9z" fill="#E62A52" p-id="4649"></path><path d="M481 620.3h-0.7c-48.2 0-94.9-14.2-135-41-40.1-26.8-71.1-64.5-89.5-109.1-9-21.8-14.8-44.7-17.2-68.1-0.7-6.7 4.2-12.8 11-13.5 6.7-0.7 12.8 4.2 13.5 11 2.2 21 7.4 41.6 15.5 61.2 34 82 113.2 134.9 201.9 134.9h0.6c57.4 0 113.5-23.3 153.9-64 55.1-55 76.8-136 56.7-211.2S612.2 186 537 165.9c-65.1-17.4-135.8-3.4-189.3 37.6-5.4 4.1-13.1 3.1-17.2-2.3s-3.1-13.1 2.3-17.2c29.3-22.4 63.9-38.1 100.1-45.3 36.4-7.3 74.7-6.1 110.6 3.5 41.2 11 78.9 32.8 109 63 30.1 30.1 51.9 67.8 63 109s11 84.7 0 125.9-32.8 78.9-63 109c-22.6 22.7-49.1 40.5-78.8 52.8-29.7 12.2-60.8 18.4-92.7 18.4zM252.2 354.4c-0.6 0-1.2 0-1.9-0.1-6.7-1-11.3-7.3-10.3-14 6-38.8 21.4-76 44.7-107.5 4-5.5 11.7-6.6 17.2-2.6 5.5 4 6.6 11.7 2.6 17.2-20.9 28.3-34.8 61.7-40.1 96.6-1 6.1-6.2 10.4-12.2 10.4z" fill="" p-id="4650"></path><path d="M861.3 1001.2H99.5c-6.8 0-12.3-5.5-12.3-12.3 0-53.1 10.4-104.6 30.9-153.1 19.8-46.8 48.1-88.9 84.3-125 36.1-36.1 78.2-64.4 125-84.3 48.5-20.5 100-30.9 153.1-30.9 54.6 0 107.5 11 157.2 32.7 48 20.9 90.7 50.8 127.1 88.8 4.7 4.9 4.5 12.7-0.4 17.4-4.9 4.7-12.7 4.5-17.4-0.4-70.4-73.3-165-113.8-266.6-113.8-199.1 0-361.9 158.7-368.4 356.3h736.8c-2.2-68-23-133.6-60.4-190.3-3.7-5.7-2.2-13.3 3.5-17 5.7-3.7 13.3-2.2 17 3.5 42.3 64.2 64.7 138.9 64.7 216.2 0 6.7-5.5 12.2-12.3 12.2z" fill="" p-id="4651"></path></svg>