<?xml version="1.0" standalone="no"?><!DOCTYPE svg PUBLIC "-//W3C//DTD SVG 1.1//EN" "http://www.w3.org/Graphics/SVG/1.1/DTD/svg11.dtd"><svg t="1598416004012" class="icon" viewBox="0 0 1024 1024" version="1.1" xmlns="http://www.w3.org/2000/svg" p-id="7103" xmlns:xlink="http://www.w3.org/1999/xlink" width="20" height="20"><defs><style type="text/css"></style></defs><path d="M511.939582 1024l-13.025575-7.608316A875.301412 875.301412 0 0 1 65.101964 285.976076a53.482495 53.482495 0 0 1 32.779593-51.239681A1700.277521 1700.277521 0 0 0 479.004717 11.334838a53.741281 53.741281 0 0 1 66.025002 0 1699.501163 1699.501163 0 0 0 381.05415 223.401557 53.482495 53.482495 0 0 1 32.779593 51.239681 877.406207 877.406207 0 0 1-122.181622 421.079758 877.388954 877.388954 0 0 1-311.630421 309.33585z m-1.242174-971.811436A1751.534454 1751.534454 0 0 1 118.101391 282.404825a2.053038 2.053038 0 0 0-1.242174 2.053038c8.212151 281.024632 155.599555 533.893318 395.080365 679.469219 239.567072-145.575901 386.954477-398.530849 395.080365-679.469219a2.087543 2.087543 0 0 0-1.242174-2.053038A1751.120396 1751.120396 0 0 1 513.268018 52.188564a2.00128 2.00128 0 0 0-2.5016 0z" fill="#886FF7" p-id="7104"></path><path d="M721.00438 374.929541a11.214072 11.214072 0 0 0-15.83772 0L458.888398 621.207804l-66.232032-66.232032a11.196819 11.196819 0 1 0-15.820467 15.83772l73.874853 73.874853a3.605755 3.605755 0 0 0 0.241533 0.293291 11.162314 11.162314 0 0 0 15.820468 0l254.231627-254.231628a11.196819 11.196819 0 0 0 0-15.820467z" fill="#FFCE00" p-id="7105"></path><path d="M458.853893 665.512013a28.25946 28.25946 0 0 1-20.116319-8.332918c-0.293291-0.293291-0.586582-0.603835-0.828116-0.879873l-73.271018-73.288271a28.449237 28.449237 0 1 1 40.215385-40.232638l54.034573 54.034572 234.080803-234.080803a28.483742 28.483742 0 0 1 40.232638 0 28.466489 28.466489 0 0 1 0 40.215386L478.970212 657.179095a28.190451 28.190451 0 0 1-20.116319 8.332918z" fill="#FFCE00" p-id="7106"></path></svg>